<svg id="icons8-google" xmlns="http://www.w3.org/2000/svg" width="31.27" height="31.27" viewBox="0 0 31.27 31.27">
  <path id="Path_1" data-name="Path 1" d="M34.966,16.573H33.706v-.065H19.635v6.254h8.836A9.388,9.388,0,1,1,25.858,12.63l4.422-4.422A15.619,15.619,0,1,0,35.27,19.635,15.741,15.741,0,0,0,34.966,16.573Z" transform="translate(-4 -4)" fill="#fbc02d"/>
  <path id="Path_2" data-name="Path 2" d="M6.306,12.358l5.137,3.767a9.362,9.362,0,0,1,14.919-3.5l4.422-4.422a15.6,15.6,0,0,0-24.478,4.15Z" transform="translate(-4.503 -4)" fill="#e53935"/>
  <path id="Path_3" data-name="Path 3" d="M20.114,40.52A15.562,15.562,0,0,0,30.6,36.461l-4.839-4.095a9.357,9.357,0,0,1-14.464-4.312L6.2,31.982A15.623,15.623,0,0,0,20.114,40.52Z" transform="translate(-4.479 -9.25)" fill="#4caf50"/>
  <path id="Path_4" data-name="Path 4" d="M39.331,20.065,39.318,20H24v6.254h8.836a9.412,9.412,0,0,1-3.195,4.355l0,0L34.482,34.7a15.124,15.124,0,0,0,5.152-11.575A15.742,15.742,0,0,0,39.331,20.065Z" transform="translate(-8.365 -7.492)" fill="#1565c0"/>
</svg>
